<svg version="1.1" id="Layer_1" xmlns="http://www.w3.org/2000/svg" xmlns:xlink="http://www.w3.org/1999/xlink" x="0px" y="0px"
	 viewBox="0 0 491.52 491.52" style="enable-background:new 0 0 491.52 491.52;" xml:space="preserve">
<g>
	<g>
		<path d="M482.939,300.57C414.065,251.377,263.352,60.728,261.837,58.803c-7.762-9.871-24.392-9.871-32.154,0
			C228.168,60.728,77.496,251.356,8.581,300.57C3.195,304.42,0,310.625,0,317.24v102.4c0,7.68,4.28,14.705,11.1,18.207
			c6.82,3.502,15.032,2.908,21.299-1.556l8.888-6.349c55.398-39.567,164.065-159.314,204.472-204.677
			c40.407,45.363,149.074,165.11,204.472,204.677l8.888,6.349c3.543,2.539,7.721,3.83,11.919,3.83c3.195,0,6.41-0.758,9.38-2.273
			c6.82-3.502,11.1-10.527,11.1-18.207v-102.4C491.52,310.625,488.325,304.42,482.939,300.57z"/>
	</g>
</g>
</svg>
